<svg xmlns="http://www.w3.org/2000/svg" xmlns:xlink="http://www.w3.org/1999/xlink"><defs><symbol fill="none" viewBox="0 0 48 51" id="icon-custom-marker"><path opacity=".01" fill="#000" d="M8 8H40V40H8z" /><g filter="url(#icon-custom-marker_filter0_d)"><path d="M36.6 22.4938C36.6031 25.05 35.8437 27.4281 34.5343 29.4125C32.8062 32.0281 27.5218 36.1375 25.2062 37.875C24.55 38.3656 23.65 38.3656 22.9937 37.8719C20.7281 36.1688 15.625 32.2 13.8844 29.7344C12.4437 27.6938 11.6 25.2063 11.6 22.5188C11.6 15.6063 17.1969 10 24.1 10C31.0125 9.99688 36.5875 15.5719 36.6 22.4938Z" fill="url(#icon-custom-marker_paint0_linear)" /></g><path d="M24 18.8C26.2101 18.8 28 20.5899 28 22.8C28 25.0101 26.2081 26.8 24 26.8C21.7899 26.8 20 25.0081 20 22.8C20 20.592 21.7899 18.8 24 18.8Z" fill="#fff" /><defs><filter id="icon-custom-marker_filter0_d" x="3.6" y="6" width="41" height="44.243" filterUnits="userSpaceOnUse" color-interpolation-filters="sRGB"><feFlood flood-opacity="0" result="BackgroundImageFix"></feFlood><feColorMatrix in="SourceAlpha" values="0 0 0 0 0 0 0 0 0 0 0 0 0 0 0 0 0 0 127 0"></feColorMatrix><feOffset dy="4"></feOffset><feGaussianBlur stdDeviation="4"></feGaussianBlur><feColorMatrix values="0 0 0 0 1 0 0 0 0 0.4 0 0 0 0 0 0 0 0 0.3 0"></feColorMatrix><feBlend in2="BackgroundImageFix" result="effect1_dropShadow"></feBlend><feBlend in="SourceGraphic" in2="effect1_dropShadow" result="shape"></feBlend></filter></defs></symbol><linearGradient id="icon-custom-marker_paint0_linear" x1="13.431" y1="20.615" x2="24.969" y2="37.601" gradientUnits="userSpaceOnUse"><stop stop-color="#FF9313" /><stop offset="1" stop-color="#F60" /></linearGradient><symbol viewBox="0 0 24 24" id="icon-ui-close"><path d="M17.0208 5.97918L5.70711 17.2929C5.31658 17.6834 5.31658 18.3166 5.70711 18.7071C6.09763 19.0976 6.7308 19.0976 7.12132 18.7071L18.435 7.3934C18.8256 7.00287 18.8256 6.36971 18.435 5.97918C18.0445 5.58866 17.4113 5.58866 17.0208 5.97918Z" /><path d="M18.0208 17.0208L6.70711 5.70711C6.31658 5.31658 5.68342 5.31658 5.29289 5.70711C4.90237 6.09763 4.90237 6.7308 5.29289 7.12132L16.6066 18.435C16.9971 18.8256 17.6303 18.8256 18.0208 18.435C18.4113 18.0445 18.4113 17.4113 18.0208 17.0208Z" /></symbol></defs></svg>