<svg width="48" height="51" viewBox="0 0 48 51" fill="none" xmlns="http://www.w3.org/2000/svg">
<rect opacity="0.01" x="8" y="8" width="32" height="32" fill="black"/>
<g filter="url(#filter0_d)">
<path d="M36.6 22.4938C36.6031 25.05 35.8437 27.4281 34.5343 29.4125C32.8062 32.0281 27.5218 36.1375 25.2062 37.875C24.55 38.3656 23.65 38.3656 22.9937 37.8719C20.7281 36.1688 15.625 32.2 13.8844 29.7344C12.4437 27.6938 11.6 25.2063 11.6 22.5188C11.6 15.6063 17.1969 10 24.1 10C31.0125 9.99688 36.5875 15.5719 36.6 22.4938Z" fill="url(#paint0_linear)"/>
</g>
<path d="M24 18.8C26.2101 18.8 28 20.5899 28 22.8C28 25.0101 26.2081 26.8 24 26.8C21.7899 26.8 20 25.0081 20 22.8C20 20.592 21.7899 18.8 24 18.8Z" fill="white"/>
<defs>
<filter id="filter0_d" x="3.59998" y="6" width="41" height="44.2426" filterUnits="userSpaceOnUse" color-interpolation-filters="sRGB">
<feFlood flood-opacity="0" result="BackgroundImageFix"/>
<feColorMatrix in="SourceAlpha" type="matrix" values="0 0 0 0 0 0 0 0 0 0 0 0 0 0 0 0 0 0 127 0"/>
<feOffset dy="4"/>
<feGaussianBlur stdDeviation="4"/>
<feColorMatrix type="matrix" values="0 0 0 0 1 0 0 0 0 0.4 0 0 0 0 0 0 0 0 0.3 0"/>
<feBlend mode="normal" in2="BackgroundImageFix" result="effect1_dropShadow"/>
<feBlend mode="normal" in="SourceGraphic" in2="effect1_dropShadow" result="shape"/>
</filter>
<linearGradient id="paint0_linear" x1="13.431" y1="20.6148" x2="24.9694" y2="37.6008" gradientUnits="userSpaceOnUse">
<stop stop-color="#FF9313"/>
<stop offset="1" stop-color="#FF6600"/>
</linearGradient>
</defs>
</svg>
