<svg width="24" height="24" viewBox="0 0 24 24" xmlns="http://www.w3.org/2000/svg">
<path d="M17.0208 5.97918L5.70711 17.2929C5.31658 17.6834 5.31658 18.3166 5.70711 18.7071C6.09763 19.0976 6.7308 19.0976 7.12132 18.7071L18.435 7.3934C18.8256 7.00287 18.8256 6.36971 18.435 5.97918C18.0445 5.58866 17.4113 5.58866 17.0208 5.97918Z"/>
<path d="M18.0208 17.0208L6.70711 5.70711C6.31658 5.31658 5.68342 5.31658 5.29289 5.70711C4.90237 6.09763 4.90237 6.7308 5.29289 7.12132L16.6066 18.435C16.9971 18.8256 17.6303 18.8256 18.0208 18.435C18.4113 18.0445 18.4113 17.4113 18.0208 17.0208Z"/>
</svg>
